# xmcd
#
# Track frame offsets:
#	182
#	25067
#	49692
#	75372
#	105702
#	150237
#	167320
#	197732
#	227270
#	254655
#	304082
#
# Disc length: 4503 seconds
#
# Revision: 0
# Processed by: cddbd v1.5.2PL0 Copyright (c) Steve Scherf et al.
# Submitted via: audiograbber 1.83.01
#
DISCID=7111950b
DTITLE=Dream Theater - Original Album Classics [CD 2) - Awake
DYEAR=1994
DGENRE=Progressive Metal
TTITLE0=6:00
TTITLE1=Caught In A Web
TTITLE2=Innocence Faded
TTITLE3=A Mind Beside Itself: I. Erotomania
TTITLE4=A Mind Beside Itself: II. Voices
TTITLE5=A Mind Beside Itself: III. The Silent Man
TTITLE6=The Mirror
TTITLE7=Lie
TTITLE8=Lifting Shadows Off A Dream
TTITLE9=Scarred
TTITLE10=Space-Dye Vest
EXTD=
EXTT0=
EXTT1=
EXTT2=
EXTT3=
EXTT4=
EXTT5=
EXTT6=
EXTT7=
EXTT8=
EXTT9=
EXTT10=
PLAYORDER=
